<svg version="1.1" id="Layer_1" xmlns="http://www.w3.org/2000/svg" xmlns:xlink="http://www.w3.org/1999/xlink" x="0px" y="0px"
	 viewBox="1649.8 93.7 1090.4 470.9" style="enable-background:new 1649.8 93.7 1090.4 470.9;" xml:space="preserve">
<style type="text/css">
	.st0{fill:#FFFFFF;}
</style>
<g>
	<path class="st0" d="M2194.2,94.4c4.6-1.6,9.7-0.3,13.9,1.8c3,1.9,5.9,3.8,9.3,5.1c0.3,0.5,0.8,1.4,1,1.9c-0.1,0.3-0.4,1-0.5,1.3
		c2.4,5.4,3.9,11.8,1.6,17.4c-1.6,1.9-4.3,2.2-6.5,2.9c0,2.7,0.4,5.4,0.7,8.1c4.7,0.8,8.7-2.5,13.4-2.2c0.6-2.6,1.1-5.3,2-7.8
		c1,1.7,1,3.6,1,5.6c1.2,0.3,2.5,0.7,3.7,1c0,0.5,0,1.4,0,1.9c20.4,0.1,40.9-0.1,61.3,0.1c-0.1,0.7-0.2,2.1-0.2,2.8
		c0.5,0,1.6,0,2.1,0c0-3.7,0-7.4,0-11.2c0.5,0,1.5-0.1,2-0.1c0,2.9,0,5.9,0.1,8.8c0.4,0.5,1.3,1.6,1.8,2.2c0.3-0.4,1-1.2,1.3-1.6
		c1.6,1.5,0.7,3.4,0.6,5.2c5.7-0.1,11.5,0.3,17.2-0.1c0.4-0.3,1.3-0.9,1.7-1.2c0.8,0.3,1.6,0.6,2.4,0.9c2.6-0.1,5.1-0.1,7.7-0.1
		c-0.1,1.3-0.1,2.7-0.1,4c-3.3-0.1-6.7-0.1-9.9,0.4c-2.1-1.8-4.9-1.2-7.5-1.3c-3.9,0.2-8-0.5-11.8,0.7c-2.3,0.6-4.7,0.5-6.7-0.8
		c-0.5,1.2,0.3,3.8-1.7,3.7c-7.9,0.1-15.8-0.1-23.6,0.1c-1.1,0.6-2.2,1.1-3.2,1.6c-1.1,3.4-4.4,5.7-7.2,7.7
		c-0.3,5.2,1.7,10.1,2.5,15.1c-1.6,0.4-3.1,0.9-4.7,1.4c-2.2,5.2-0.9,12.3-6,15.9c-3.9,2.3-6.5,7.2-11.8,6.4
		c2.7,2.2-0.7,1.5-0.4-0.3c-9.5-0.8-17.6-6.4-25.9-10.7c-0.4,2.3-1,4.6-1.6,6.9c3.1,0.6,5.7,2.9,6.3,6.1c1,7-1,14-1,21.1
		c0.2,4.1-1.6,7.9-3.8,11.3c-1.9,2.2-5-0.1-7.3-0.4c-0.5,1-1,2.1-1.6,3.1c0.7,2.8,0.9,5.6,1.9,8.3c5.2,5.7,9.9,12,13.5,18.8
		c3.7,7.8,7.1,15.7,10,23.8c0.3,1.6,1.8,2.1,3.1,2.7c0.2,1.6,0.3,3.2,0.5,4.9c0.5,0.7,1,1.5,1.6,2.2c0.3,10-0.9,20-2.5,29.9
		c-1,4.5,1.6,8.8,0.6,13.3c0.1,2.3-1.5,4-2.2,6.1c-0.1,4.7-0.4,9.5,0.1,14.3c0.4,3.5,3.3,5.7,5.3,8.3c2.2,2.3,4,5.4,7.3,6.2
		c3.1,0.9,6.1,2.3,8.8,4c0.8,2.1,0.7,4.2,0.3,6.4c-6,1.1-12,0.5-18,0.6c-4.6,0.2-8.8-2.2-13.3-2.8c-4.4-0.1-9.7,2.1-13-1.8
		c1.4-5.4,1.5-11.2,4.1-16.3c0.8-5.7-0.7-11.5-0.4-17.3c-0.5-0.4-1.5-1.2-2-1.7c0.4-3.8-1.5-7.1-2.1-10.7
		c-0.4-5.3-0.9-10.5-1.5-15.8c-0.5-2.5,0.8-4.9,2.6-6.6c0.2-2.9,0.6-5.9,0.8-8.8c-0.4-1.9-2-3.3-2.9-4.9c-3.3,1.4-7.7,0.7-9.6-2.5
		c-4.6-6.8-9.2-13.7-13.8-20.5c-1.8-0.1-3.8,0.1-5.5-0.7c-2-2-3-4.7-4.3-7.2c-1.8,2-1.7,5.1-3.8,7c-4.5,4.3-5.7,10.7-8.1,16.2
		c-1.8,3.6-0.8,7.9-2.8,11.4c-1.1,1.9-3.8,2.3-4.5,4.4c-0.9,2.3-2,4.7-4.2,6.1c-2.4,1.6-3,4.5-4.1,6.9c-1,2.2,0.5,4.6,0.1,6.9
		c-1.5,7.3-6.2,13.4-8.1,20.6c-0.9,3.2-2.2,6.9-5.9,7.6c-4.3,7.6-6.6,17-4.2,25.6c1.5,2.7,1.4,5.7,0.9,8.7
		c-6.8,0.5-13.8,1.4-20.4-0.5c-1.6-3.1-1.3-6.7-1-10.1c2.1-8.8,4.8-17.5,6.5-26.4c-2.1-1.9-1.6-4.7-1.6-7.2
		c-0.1-4.6,3.1-8.4,5.3-12.2c0.8-3.9,0.4-8.1,2.5-11.7c2.4-4.5,4.4-9.3,8.1-13c0.7-3.2,3.1-5.6,4-8.7c1-2.7-0.8-5.5-0.4-8.3
		c0.9-8.4,2.4-16.8,3.7-25.2c-2.5-2.1-1.7-5.4-2.5-8.3c0.4-1.1,0.9-2.2,1.5-3.2c-0.6-0.6-1.2-1.2-1.9-1.7c0.6-3,0.4-8.3,5-7.3
		c0.3-9.9-3.1-19.4-2-29.3c0.6,0.7,1.2,1.4,1.8,2.2l-0.3-3.3c1.9-1,3.9-1.8,6.1-2.2c-3.5-0.5-6.9-1.3-10.3-2.1
		c-0.8-2.2-0.4-4.5-0.1-6.7c1.3-7.5,1.8-15.1,2.1-22.6c3.8-1.3,8.1-0.2,11.9-2c-1.2-9.5-1.5-19.4,1.9-28.5c2.7-7.7,7.9-15.2,16-17.9
		c3.8-0.9,8.6-1.9,11.3,1.8c0.7-0.7,1.5-1.4,2.2-2.1C2172.8,114.8,2180.2,96.9,2194.2,94.4 M2243.5,147.5c-1.6,1-3.2,2.1-1.5,3.9
		c-0.8,0.5-1.7,1-2.5,1.4c-1.3,1-4.3,1.6-3.9,3.6c1.5,2.4,2.8,4.9,3.8,7.5c3.2-2.7,5.8-6.2,7.6-10c0.4-0.4,1.1-1.1,1.5-1.5
		c-0.2-1.7-0.5-3.4-1.2-5C2246,147.5,2244.8,147.5,2243.5,147.5L2243.5,147.5z"/>
	<path class="st0" d="M2273.3,238.4c4.7-5.9,12.2-9.1,19.6-9c22.7,0,45.4,0,68.1,0c11.1,0.2,21.8,8.9,23.1,20.1
		c-31.4-0.1-62.8,0.1-94.2-0.1c0,21-0.1,42,0,63c24.1,0,48.2-0.1,72.3,0c-0.1-7.5,0-15.1-0.1-22.6c-11.9,0.1-23.8,0.1-35.7,0
		c-9.6-0.4-16.7-8.6-18.8-17.4c25.6-0.1,51.2-0.1,76.8,0c-0.1,12.9,0.1,25.8-0.1,38.6c-0.3,10.8-9.6,20.4-20.3,21.5
		c-24.7,0-49.4,0-74.2,0c-7.4-0.1-13.9-4.7-18.1-10.5c-2.8-4.1-3.5-9.2-3.9-14.1c0-17.3,0-34.5,0-51.8
		C2268,249.9,2269.1,243.3,2273.3,238.4z M2423.2,230.2c2.6-0.7,5.2-0.7,7.8-0.7c21,0.1,41.9-0.1,62.9,0.1
		c11.9,0.5,22.3,10.8,22.8,22.7c0,19.3,0,38.5,0,57.8c-0.2,11.8-10.7,22.8-22.7,22.6c-23.1-0.1-46.1,0.1-69.2-0.1
		c-11.5-1.3-20.3-12.3-20.4-23.6c-0.2-17.6,0-35.2-0.1-52.7c-0.1-5.2,0.8-10.5,3.6-15C2411.2,235.6,2417,231.7,2423.2,230.2
		 M2426.8,248.9c0,21.7-0.1,43.4,0.1,65c22.5,0.1,45.1,0,67.6,0c0.1-21.7,0-43.4,0-65.1C2471.9,248.9,2449.4,248.8,2426.8,248.9
		L2426.8,248.9z M1845,254.1c0.5-11.8,10.3-22.8,22.3-23.3c22.4,0,44.8,0,67.1,0c12.1-0.1,22.2,10.8,23.1,22.5
		c-1.6,0.1-3.2,0.2-4.8,0.3c-26.6,0-53.3,0-79.9,0c0,18.9-0.1,37.9,0.1,56.8c28.3,0,56.5-0.1,84.8,0c-0.8,12.1-11,22.9-23.3,23.4
		c-20.3,0.3-40.5,0-60.8,0.1c-5,0.2-10.2-0.5-14.8-2.8c-7.8-4-13.4-12.2-13.7-21.1C1845,291.4,1844.9,272.7,1845,254.1L1845,254.1z
		 M1979,244.9c3.7-8.1,12.3-14.2,21.3-14.1c22.3,0,44.7,0,67.1,0c11.7,0.1,21.9,10.3,22.8,21.8c-29.5,0.4-59,0.1-88.5,0.2
		c-0.1,5.9-0.1,11.9-0.1,17.8c21.9,0.1,43.9,0,65.8,0c6.5,0.3,13.3,2.3,17.8,7.4c5,4.5,7.1,11.2,7.2,17.7c0.1,6.5,0.1,13.1-0.9,19.5
		c-2.4,10.4-12.4,18.2-23.1,18.6c-21.3,0.2-42.6,0-63.9,0.1c-5,0.1-10.2-0.6-14.7-3.1c-7.1-3.7-12.1-11.1-12.8-19.1
		c30,0.1,60,0.1,90,0c0.1-6.3,0-12.6,0-19c-22.2-0.2-44.4,0-66.6-0.1c-12.8,0.1-24.1-11.6-23.7-24.4
		C1977.1,260.6,1975.3,252.1,1979,244.9L1979,244.9z M2523.7,232.9c2.8-0.1,5.7-0.2,8.5,0.2c-1.3,0.3-2.6,0.5-4,0.5
		c-0.2,3.1-0.2,6.1-0.2,9.2c-0.3,0-0.9,0-1.2,0c0-3.1,0.1-6.3,0-9.4c-0.8,0.1-2.4,0.2-3.1,0.3L2523.7,232.9L2523.7,232.9z
		 M2533.7,232.8c0.6,0,1.8,0.1,2.4,0.1c0.9,2.8,1.9,5.5,3.1,8.1c1.2-2.6,2-5.4,3.3-8c0.6-0.1,1.7-0.3,2.3-0.3c-0.3,3.7,1,7.9-1,11.3
		c-0.4-3.3-0.2-6.6-0.4-10c-1.5,3.1-2.3,6.6-4.3,9.4c-1.5-2.9-2.2-6.3-4.1-9.1c-0.1,3-0.1,5.9-0.1,8.9l-1.1-0.1
		C2533.8,239.7,2533.8,236.2,2533.7,232.8L2533.7,232.8z"/>
</g>
<g>
	<path class="st0" d="M1752.8,515l-47.8-60.8h52v-18.6h-67.8V491c0,9.5-2.9,15.9-8.6,19.2c-2.9,1.7-6.3,2.9-10,3.4
		c-3.7,0.5-7.5,0.8-11.4,0.8h-3.4v-99.8h104c9.3,0,16.7,1.8,22.2,5.4c5.5,3.6,8.2,8.8,8.2,15.6v19c0,6.4-2.5,11.4-7.5,15
		c-5,3.6-12.1,5.6-21.3,6l32,39.4H1752.8z"/>
	<path class="st0" d="M1878.4,485.2h-47.8v14.2h75.6c0,2.7-0.6,5-1.7,6.9c-1.1,1.9-2.7,3.5-4.8,4.8c-2.1,1.3-4.5,2.2-7.3,2.8
		c-2.8,0.6-5.8,0.9-9,0.9H1828c-3.1,0-6-0.4-8.7-1.1c-2.7-0.7-5.1-1.8-7.2-3.2c-2.1-1.4-3.7-3-4.9-4.9c-1.2-1.9-1.8-4-1.8-6.4v-44
		c0-2.3,0.6-4.4,1.8-6.3c1.2-1.9,2.8-3.6,4.9-4.9c2.1-1.3,4.5-2.4,7.2-3.2c2.7-0.8,5.6-1.2,8.5-1.2h55.6c6.9,0,12.5,1.4,16.6,4.1
		c4.1,2.7,6.2,6.6,6.2,11.7h-75.6v14h47.8V485.2z"/>
	<path class="st0" d="M2019,469.4c0,5.2-2.5,9.1-7.6,11.8c-5.1,2.7-11.9,4-20.6,4h-37.4c0-1.6,0.3-3.4,0.8-5.3
		c0.5-1.9,1.4-3.7,2.5-5.2c1.1-1.5,2.7-2.8,4.6-3.8c1.9-1,4.2-1.5,6.7-1.5h25.8v-14h-50.4v41.8c0,7.1-2.2,11.9-6.6,14.4
		c-2.1,1.3-4.6,2.2-7.4,2.6c-2.8,0.4-5.7,0.6-8.6,0.6h-2.6v-75.2h78c6.8,0,12.3,1.4,16.5,4.1c4.2,2.7,6.3,6.6,6.3,11.7V469.4z"/>
	<path class="st0" d="M2131.8,499.6c0,2.7-0.6,4.9-1.8,6.8c-1.2,1.9-2.8,3.4-4.8,4.7c-2,1.3-4.4,2.2-7.2,2.8c-2.8,0.6-5.8,0.9-9,0.9
		h-55.6c-3.1,0-6-0.4-8.7-1.1c-2.7-0.7-5.1-1.8-7.1-3.2c-2-1.4-3.6-3-4.8-4.8c-1.2-1.8-1.8-3.9-1.8-6.3V455c0-2.3,0.6-4.4,1.8-6.3
		c1.2-1.9,2.8-3.6,4.8-4.9c2-1.3,4.4-2.4,7.1-3.1c2.7-0.7,5.6-1.1,8.7-1.1h55.6c6.8,0,12.3,1.3,16.5,4c4.2,2.7,6.3,6.5,6.3,11.6
		V499.6z M2106.8,455.4h-50.6v44h50.6V455.4z"/>
	<path class="st0" d="M2216.6,515l-35.8-45.6h39v-14H2169V497c0,7.1-2.2,11.9-6.6,14.4c-2.1,1.2-4.6,2-7.4,2.4
		c-2.8,0.4-5.7,0.6-8.6,0.6h-2.6v-74.8h78c7.1,0,12.6,1.4,16.7,4.1c4.1,2.7,6.1,6.6,6.1,11.7v14.2c0,4.8-1.9,8.6-5.6,11.3
		c-3.7,2.7-9.1,4.2-16,4.5l24,29.6H2216.6z"/>
	<path class="st0" d="M2361,443c0,3.2-0.8,5.6-2.3,7.3c-1.5,1.7-3.4,2.9-5.5,3.6c-2.1,0.7-4.4,1.2-6.7,1.3c-2.3,0.1-4.3,0.2-5.9,0.2
		H2323v43.8c0,5.6-1.3,9.6-3.8,12c-2.5,2.4-7.3,3.6-14.2,3.6h-7.4v-59.4H2259v-2.2c0-5.2,1.5-8.8,4.6-10.7c3.1-1.9,7.4-2.9,13-2.9
		h84.4V443z"/>
	<path class="st0" d="M2507.4,489.4c0,4.9-0.9,9.1-2.7,12.4c-1.8,3.3-4.3,5.9-7.4,7.8c-3.1,1.9-6.7,3.2-10.7,4s-8.2,1.2-12.6,1.2
		h-101V414.6h101.2c10.7,0,18.9,1.7,24.6,5.1c5.7,3.4,8.6,7.6,8.6,12.7v2.6c0,2.8-0.8,5.6-2.5,8.5c-1.7,2.9-4,5.2-7.1,6.9
		c-4,2.1-9.1,3.5-15.4,4.2v0.2c2.9,0.5,5.7,1.2,8.3,2c2.6,0.8,5,2,7.3,3.6c2.9,1.6,5.2,3.7,6.9,6.3c1.7,2.6,2.5,5.4,2.5,8.3V489.4z
		 M2474.2,435.6h-67.8v18.6h67.8V435.6z M2406.4,475.4v18.8h67.8v-18.8H2406.4z"/>
	<path class="st0" d="M2620.2,499.6c0,2.7-0.6,4.9-1.8,6.8c-1.2,1.9-2.8,3.4-4.8,4.7c-2,1.3-4.4,2.2-7.2,2.8c-2.8,0.6-5.8,0.9-9,0.9
		h-55.6c-3.1,0-6-0.4-8.7-1.1c-2.7-0.7-5.1-1.8-7.1-3.2c-2-1.4-3.6-3-4.8-4.8c-1.2-1.8-1.8-3.9-1.8-6.3V455c0-2.3,0.6-4.4,1.8-6.3
		c1.2-1.9,2.8-3.6,4.8-4.9c2-1.3,4.4-2.4,7.1-3.1c2.7-0.7,5.6-1.1,8.7-1.1h55.6c6.8,0,12.3,1.3,16.5,4c4.2,2.7,6.3,6.5,6.3,11.6
		V499.6z M2595.2,455.4h-50.6v44h50.6V455.4z"/>
	<path class="st0" d="M2734.2,443c0,3.2-0.8,5.6-2.3,7.3c-1.5,1.7-3.4,2.9-5.5,3.6c-2.1,0.7-4.4,1.2-6.7,1.3
		c-2.3,0.1-4.3,0.2-5.9,0.2h-17.6v43.8c0,5.6-1.3,9.6-3.8,12c-2.5,2.4-7.3,3.6-14.2,3.6h-7.4v-59.4h-38.6v-2.2
		c0-5.2,1.5-8.8,4.6-10.7c3.1-1.9,7.4-2.9,13-2.9h84.4V443z"/>
</g>
</svg>
